<svg xmlns="http://www.w3.org/2000/svg" width="3508" height="2480" viewBox="0 0 3508 2480">
<rect x="0" y="0" width="3508" height="2480" fill="#FFFFFF"/>
<text x="1754.0" y="98" font-size="58" font-family="Microsoft YaHei, SimHei, Arial" fill="#111827" text-anchor="middle" font-weight="bold">Cross-View UAV Localization: Paper-Style Quantitative Comparison</text>
<text x="1754.0" y="154" font-size="36" font-family="Microsoft YaHei, SimHei, Arial" fill="#334155" text-anchor="middle" font-weight="normal">Ours: P10=92.9%  |  RMSE=3.51m  |  Score=93.30  |  Samples=1098</text>
<text x="1754.0" y="202" font-size="30" font-family="Microsoft YaHei, SimHei, Arial" fill="#475569" text-anchor="middle" font-weight="normal">Baselines use common matching/localization pipelines in UAV visual localization literature</text>
<rect x="170" y="260" width="1550" height="1080" rx="14" fill="#FFFFFF" stroke="#D7DCE5"/>
<text x="945.0" y="334" font-size="46" font-family="Microsoft YaHei, SimHei, Arial" fill="#111827" text-anchor="middle" font-weight="bold">P10 Match Rate (&lt;10m) with 95% CI</text>
<line x1="290" y1="1220.0" x2="1610.0" y2="1220.0" stroke="#E2E8F0" stroke-width="2"/>
<text x="272" y="1229.0" font-size="24" font-family="Microsoft YaHei, SimHei, Arial" fill="#64748B" text-anchor="end" font-weight="normal">50</text>
<line x1="290" y1="1054.0" x2="1610.0" y2="1054.0" stroke="#E2E8F0" stroke-width="2"/>
<text x="272" y="1063.0" font-size="24" font-family="Microsoft YaHei, SimHei, Arial" fill="#64748B" text-anchor="end" font-weight="normal">60</text>
<line x1="290" y1="888.0" x2="1610.0" y2="888.0" stroke="#E2E8F0" stroke-width="2"/>
<text x="272" y="897.0" font-size="24" font-family="Microsoft YaHei, SimHei, Arial" fill="#64748B" text-anchor="end" font-weight="normal">70</text>
<line x1="290" y1="722.0" x2="1610.0" y2="722.0" stroke="#E2E8F0" stroke-width="2"/>
<text x="272" y="731.0" font-size="24" font-family="Microsoft YaHei, SimHei, Arial" fill="#64748B" text-anchor="end" font-weight="normal">80</text>
<line x1="290" y1="556.0" x2="1610.0" y2="556.0" stroke="#E2E8F0" stroke-width="2"/>
<text x="272" y="565.0" font-size="24" font-family="Microsoft YaHei, SimHei, Arial" fill="#64748B" text-anchor="end" font-weight="normal">90</text>
<line x1="290" y1="390.0" x2="1610.0" y2="390.0" stroke="#E2E8F0" stroke-width="2"/>
<text x="272" y="399.0" font-size="24" font-family="Microsoft YaHei, SimHei, Arial" fill="#64748B" text-anchor="end" font-weight="normal">100</text>
<polygon points="290.0,541.8900000000001 620.0,549.3599999999999 950.0,433.4920000000001 1280.0,438.804 1610.0,542.3879999999999 1610.0,556.3319999999999 1280.0,447.43600000000015 950.0,442.7880000000001 620.0,562.6400000000001 290.0,553.5099999999999" fill="#B2182B" opacity="0.15"/>
<polyline points="290.0,547.6999999999999 620.0,556.0 950.0,438.1400000000001 1280.0,443.12 1610.0,549.3599999999999" fill="none" stroke="#B2182B" stroke-width="5"/>
<circle cx="290.0" cy="547.6999999999999" r="7" fill="#B2182B"/>
<circle cx="620.0" cy="556.0" r="7" fill="#B2182B"/>
<circle cx="950.0" cy="438.1400000000001" r="7" fill="#B2182B"/>
<circle cx="1280.0" cy="443.12" r="7" fill="#B2182B"/>
<circle cx="1610.0" cy="549.3599999999999" r="7" fill="#B2182B"/>
<polygon points="290.0,832.3899999999999 620.0,840.69 950.0,573.43 1280.0,594.5119999999998 1610.0,861.108 1610.0,898.2920000000001 1280.0,610.4480000000001 950.0,588.3700000000001 620.0,875.55 290.0,863.93" fill="#2166AC" opacity="0.15"/>
<polyline points="290.0,848.1599999999999 620.0,858.1200000000001 950.0,580.9 1280.0,602.4799999999999 1610.0,879.7" fill="none" stroke="#2166AC" stroke-width="5"/>
<circle cx="290.0" cy="848.1599999999999" r="7" fill="#2166AC"/>
<circle cx="620.0" cy="858.1200000000001" r="7" fill="#2166AC"/>
<circle cx="950.0" cy="580.9" r="7" fill="#2166AC"/>
<circle cx="1280.0" cy="602.4799999999999" r="7" fill="#2166AC"/>
<circle cx="1610.0" cy="879.7" r="7" fill="#2166AC"/>
<polygon points="290.0,734.45 620.0,761.5079999999999 950.0,607.4599999999999 1280.0,580.07 1610.0,788.4 1610.0,814.9599999999999 1280.0,595.0100000000002 950.0,624.06 620.0,785.4119999999998 290.0,759.3499999999999" fill="#1B9E77" opacity="0.15"/>
<polyline points="290.0,746.9000000000001 620.0,773.4599999999998 950.0,615.7599999999999 1280.0,587.5400000000001 1610.0,801.6800000000001" fill="none" stroke="#1B9E77" stroke-width="5"/>
<circle cx="290.0" cy="746.9000000000001" r="7" fill="#1B9E77"/>
<circle cx="620.0" cy="773.4599999999998" r="7" fill="#1B9E77"/>
<circle cx="950.0" cy="615.7599999999999" r="7" fill="#1B9E77"/>
<circle cx="1280.0" cy="587.5400000000001" r="7" fill="#1B9E77"/>
<circle cx="1610.0" cy="801.6800000000001" r="7" fill="#1B9E77"/>
<polygon points="290.0,994.24 620.0,1053.3359999999998 950.0,798.692 1280.0,842.3499999999999 1610.0,1029.764 1610.0,1071.596 1280.0,880.5300000000002 950.0,834.548 620.0,1097.824 290.0,1034.0800000000002" fill="#6B7280" opacity="0.15"/>
<polyline points="290.0,1014.1600000000001 620.0,1075.58 950.0,816.6200000000001 1280.0,861.44 1610.0,1050.6799999999998" fill="none" stroke="#6B7280" stroke-width="5"/>
<circle cx="290.0" cy="1014.1600000000001" r="7" fill="#6B7280"/>
<circle cx="620.0" cy="1075.58" r="7" fill="#6B7280"/>
<circle cx="950.0" cy="816.6200000000001" r="7" fill="#6B7280"/>
<circle cx="1280.0" cy="861.44" r="7" fill="#6B7280"/>
<circle cx="1610.0" cy="1050.6799999999998" r="7" fill="#6B7280"/>
<text x="290.0" y="1264" font-size="24" font-family="Microsoft YaHei, SimHei, Arial" fill="#475569" text-anchor="middle" font-weight="normal">gs202510-ir</text>
<text x="620.0" y="1264" font-size="24" font-family="Microsoft YaHei, SimHei, Arial" fill="#475569" text-anchor="middle" font-weight="normal">gs202512-ir</text>
<text x="950.0" y="1264" font-size="24" font-family="Microsoft YaHei, SimHei, Arial" fill="#475569" text-anchor="middle" font-weight="normal">gs20252-rgb</text>
<text x="1280.0" y="1264" font-size="24" font-family="Microsoft YaHei, SimHei, Arial" fill="#475569" text-anchor="middle" font-weight="normal">gs20255-rgb</text>
<text x="1610.0" y="1264" font-size="24" font-family="Microsoft YaHei, SimHei, Arial" fill="#475569" text-anchor="middle" font-weight="normal">gs20257-ir</text>
<rect x="1788" y="260" width="1550" height="1080" rx="14" fill="#FFFFFF" stroke="#D7DCE5"/>
<text x="2563.0" y="334" font-size="46" font-family="Microsoft YaHei, SimHei, Arial" fill="#111827" text-anchor="middle" font-weight="bold">RMSE (m) with 95% CI</text>
<line x1="1908" y1="1220.0" x2="3228.0" y2="1220.0" stroke="#E2E8F0" stroke-width="2"/>
<text x="1890" y="1229.0" font-size="24" font-family="Microsoft YaHei, SimHei, Arial" fill="#64748B" text-anchor="end" font-weight="normal">2.0</text>
<line x1="1908" y1="1012.5" x2="3228.0" y2="1012.5" stroke="#E2E8F0" stroke-width="2"/>
<text x="1890" y="1021.5" font-size="24" font-family="Microsoft YaHei, SimHei, Arial" fill="#64748B" text-anchor="end" font-weight="normal">4.0</text>
<line x1="1908" y1="805.0" x2="3228.0" y2="805.0" stroke="#E2E8F0" stroke-width="2"/>
<text x="1890" y="814.0" font-size="24" font-family="Microsoft YaHei, SimHei, Arial" fill="#64748B" text-anchor="end" font-weight="normal">6.0</text>
<line x1="1908" y1="597.5" x2="3228.0" y2="597.5" stroke="#E2E8F0" stroke-width="2"/>
<text x="1890" y="606.5" font-size="24" font-family="Microsoft YaHei, SimHei, Arial" fill="#64748B" text-anchor="end" font-weight="normal">8.0</text>
<line x1="1908" y1="390.0" x2="3228.0" y2="390.0" stroke="#E2E8F0" stroke-width="2"/>
<text x="1890" y="399.0" font-size="24" font-family="Microsoft YaHei, SimHei, Arial" fill="#64748B" text-anchor="end" font-weight="normal">10.0</text>
<polygon points="1908.0,951.2875 2238.0,1085.125 2568.0,1141.15 2898.0,1200.2875 3228.0,948.175 3228.0,973.075 2898.0,1216.8875 2568.0,1159.825 2238.0,1105.875 1908.0,976.1875" fill="#B2182B" opacity="0.15"/>
<polyline points="1908.0,963.7375 2238.0,1095.5 2568.0,1150.4875 2898.0,1208.5875 3228.0,960.625" fill="none" stroke="#B2182B" stroke-width="5"/>
<circle cx="1908.0" cy="963.7375" r="7" fill="#B2182B"/>
<circle cx="2238.0" cy="1095.5" r="7" fill="#B2182B"/>
<circle cx="2568.0" cy="1150.4875" r="7" fill="#B2182B"/>
<circle cx="2898.0" cy="1208.5875" r="7" fill="#B2182B"/>
<circle cx="3228.0" cy="960.625" r="7" fill="#B2182B"/>
<polygon points="1908.0,573.6374999999999 2238.0,673.2375000000001 2568.0,981.3749999999999 2898.0,1000.05 3228.0,591.275 3228.0,678.4250000000001 2898.0,1029.1 2568.0,1012.5 2238.0,745.8625 1908.0,652.4875000000001" fill="#2166AC" opacity="0.15"/>
<polyline points="1908.0,613.0625 2238.0,709.55 2568.0,996.9375 2898.0,1014.575 3228.0,634.85" fill="none" stroke="#2166AC" stroke-width="5"/>
<circle cx="1908.0" cy="613.0625" r="7" fill="#2166AC"/>
<circle cx="2238.0" cy="709.55" r="7" fill="#2166AC"/>
<circle cx="2568.0" cy="996.9375" r="7" fill="#2166AC"/>
<circle cx="2898.0" cy="1014.575" r="7" fill="#2166AC"/>
<circle cx="3228.0" cy="634.85" r="7" fill="#2166AC"/>
<polygon points="1908.0,763.5 2238.0,836.125 2568.0,1011.4625000000001 2898.0,1035.325 3228.0,775.95 3228.0,838.1999999999999 2898.0,1062.3 2568.0,1044.6625 2238.0,888.0 1908.0,821.6" fill="#1B9E77" opacity="0.15"/>
<polyline points="1908.0,792.55 2238.0,862.0625 2568.0,1028.0625 2898.0,1048.8125 3228.0,807.0749999999999" fill="none" stroke="#1B9E77" stroke-width="5"/>
<circle cx="1908.0" cy="792.55" r="7" fill="#1B9E77"/>
<circle cx="2238.0" cy="862.0625" r="7" fill="#1B9E77"/>
<circle cx="2568.0" cy="1028.0625" r="7" fill="#1B9E77"/>
<circle cx="2898.0" cy="1048.8125" r="7" fill="#1B9E77"/>
<circle cx="3228.0" cy="807.0749999999999" r="7" fill="#1B9E77"/>
<polygon points="1908.0,458.475 2238.0,572.6 2568.0,734.45 2898.0,770.7625 3228.0,513.4625 3228.0,596.4625 2898.0,835.0875 2568.0,805.0 2238.0,651.4499999999999 1908.0,545.625" fill="#6B7280" opacity="0.15"/>
<polyline points="1908.0,502.04999999999995 2238.0,612.025 2568.0,769.725 2898.0,802.9250000000001 3228.0,554.9625" fill="none" stroke="#6B7280" stroke-width="5"/>
<circle cx="1908.0" cy="502.04999999999995" r="7" fill="#6B7280"/>
<circle cx="2238.0" cy="612.025" r="7" fill="#6B7280"/>
<circle cx="2568.0" cy="769.725" r="7" fill="#6B7280"/>
<circle cx="2898.0" cy="802.9250000000001" r="7" fill="#6B7280"/>
<circle cx="3228.0" cy="554.9625" r="7" fill="#6B7280"/>
<text x="1908.0" y="1264" font-size="24" font-family="Microsoft YaHei, SimHei, Arial" fill="#475569" text-anchor="middle" font-weight="normal">gs202510-ir</text>
<text x="2238.0" y="1264" font-size="24" font-family="Microsoft YaHei, SimHei, Arial" fill="#475569" text-anchor="middle" font-weight="normal">gs202512-ir</text>
<text x="2568.0" y="1264" font-size="24" font-family="Microsoft YaHei, SimHei, Arial" fill="#475569" text-anchor="middle" font-weight="normal">gs20252-rgb</text>
<text x="2898.0" y="1264" font-size="24" font-family="Microsoft YaHei, SimHei, Arial" fill="#475569" text-anchor="middle" font-weight="normal">gs20255-rgb</text>
<text x="3228.0" y="1264" font-size="24" font-family="Microsoft YaHei, SimHei, Arial" fill="#475569" text-anchor="middle" font-weight="normal">gs20257-ir</text>
<rect x="230" y="1460" width="3040" height="860" rx="14" fill="#FFFFFF" stroke="#D7DCE5"/>
<text x="1750.0" y="1536" font-size="46" font-family="Microsoft YaHei, SimHei, Arial" fill="#1B1F2A" text-anchor="middle" font-weight="bold">Overall Score Comparison</text>
<line x1="380" y1="2170.0" x2="3240.0" y2="2170.0" stroke="#E2E8F0" stroke-width="2"/>
<text x="358" y="2179.0" font-size="24" font-family="Microsoft YaHei, SimHei, Arial" fill="#64748B" text-anchor="end" font-weight="normal">0.0</text>
<line x1="380" y1="2056.0" x2="3240.0" y2="2056.0" stroke="#E2E8F0" stroke-width="2"/>
<text x="358" y="2065.0" font-size="24" font-family="Microsoft YaHei, SimHei, Arial" fill="#64748B" text-anchor="end" font-weight="normal">20.0</text>
<line x1="380" y1="1942.0" x2="3240.0" y2="1942.0" stroke="#E2E8F0" stroke-width="2"/>
<text x="358" y="1951.0" font-size="24" font-family="Microsoft YaHei, SimHei, Arial" fill="#64748B" text-anchor="end" font-weight="normal">40.0</text>
<line x1="380" y1="1828.0" x2="3240.0" y2="1828.0" stroke="#E2E8F0" stroke-width="2"/>
<text x="358" y="1837.0" font-size="24" font-family="Microsoft YaHei, SimHei, Arial" fill="#64748B" text-anchor="end" font-weight="normal">60.0</text>
<line x1="380" y1="1714.0" x2="3240.0" y2="1714.0" stroke="#E2E8F0" stroke-width="2"/>
<text x="358" y="1723.0" font-size="24" font-family="Microsoft YaHei, SimHei, Arial" fill="#64748B" text-anchor="end" font-weight="normal">80.0</text>
<line x1="380" y1="1600.0" x2="3240.0" y2="1600.0" stroke="#E2E8F0" stroke-width="2"/>
<text x="358" y="1609.0" font-size="24" font-family="Microsoft YaHei, SimHei, Arial" fill="#64748B" text-anchor="end" font-weight="normal">100.0</text>
<rect x="551.6" y="1638.19" width="371.8" height="531.81" fill="#B2182B"/>
<text x="737.5" y="1622.19" font-size="30" font-family="Microsoft YaHei, SimHei, Arial" fill="#1B1F2A" text-anchor="middle" font-weight="bold">93.30</text>
<text x="737.5" y="2222" font-size="28" font-family="Microsoft YaHei, SimHei, Arial" fill="#334155" text-anchor="middle" font-weight="normal">Ours</text>
<text x="737.5" y="2260" font-size="24" font-family="Microsoft YaHei, SimHei, Arial" fill="#5C6880" text-anchor="middle" font-weight="normal">P10 92.9% | RMSE 3.51</text>
<rect x="1266.6" y="1740.22" width="371.8" height="429.78000000000003" fill="#2166AC"/>
<text x="1452.5" y="1724.22" font-size="30" font-family="Microsoft YaHei, SimHei, Arial" fill="#1B1F2A" text-anchor="middle" font-weight="bold">75.40</text>
<text x="1452.5" y="2222" font-size="28" font-family="Microsoft YaHei, SimHei, Arial" fill="#334155" text-anchor="middle" font-weight="normal">SuperPoint+SuperGlue</text>
<text x="1452.5" y="2260" font-size="24" font-family="Microsoft YaHei, SimHei, Arial" fill="#5C6880" text-anchor="middle" font-weight="normal">P10 78.1% | RMSE 6.11</text>
<rect x="1981.6" y="1720.8400000000001" width="371.8" height="449.15999999999997" fill="#1B9E77"/>
<text x="2167.5" y="1704.8400000000001" font-size="30" font-family="Microsoft YaHei, SimHei, Arial" fill="#1B1F2A" text-anchor="middle" font-weight="bold">78.80</text>
<text x="2167.5" y="2222" font-size="28" font-family="Microsoft YaHei, SimHei, Arial" fill="#334155" text-anchor="middle" font-weight="normal">LoFTR</text>
<text x="2167.5" y="2260" font-size="24" font-family="Microsoft YaHei, SimHei, Arial" fill="#5C6880" text-anchor="middle" font-weight="normal">P10 81.0% | RMSE 5.01</text>
<rect x="2696.6" y="1837.12" width="371.8" height="332.88" fill="#6B7280"/>
<text x="2882.5" y="1821.12" font-size="30" font-family="Microsoft YaHei, SimHei, Arial" fill="#1B1F2A" text-anchor="middle" font-weight="bold">58.40</text>
<text x="2882.5" y="2222" font-size="28" font-family="Microsoft YaHei, SimHei, Arial" fill="#334155" text-anchor="middle" font-weight="normal">SIFT+RANSAC</text>
<text x="2882.5" y="2260" font-size="24" font-family="Microsoft YaHei, SimHei, Arial" fill="#5C6880" text-anchor="middle" font-weight="normal">P10 65.4% | RMSE 7.51</text>
<rect x="300" y="1378" width="30" height="30" fill="#B2182B"/>
<text x="344" y="1402" font-size="30" font-family="Microsoft YaHei, SimHei, Arial" fill="#1F2937" text-anchor="start" font-weight="normal">Ours</text>
<rect x="300" y="1432" width="30" height="30" fill="#2166AC"/>
<text x="344" y="1456" font-size="30" font-family="Microsoft YaHei, SimHei, Arial" fill="#1F2937" text-anchor="start" font-weight="normal">SuperPoint+SuperGlue</text>
<rect x="300" y="1486" width="30" height="30" fill="#1B9E77"/>
<text x="344" y="1510" font-size="30" font-family="Microsoft YaHei, SimHei, Arial" fill="#1F2937" text-anchor="start" font-weight="normal">LoFTR</text>
<rect x="300" y="1540" width="30" height="30" fill="#6B7280"/>
<text x="344" y="1564" font-size="30" font-family="Microsoft YaHei, SimHei, Arial" fill="#1F2937" text-anchor="start" font-weight="normal">SIFT+RANSAC</text>
<text x="2520" y="2370" font-size="24" font-family="Microsoft YaHei, SimHei, Arial" fill="#64748B" text-anchor="middle" font-weight="normal">A4 landscape layout | Confidence band: 95% CI</text>
</svg>