<svg xmlns="http://www.w3.org/2000/svg" width="1400" height="700" viewBox="0 0 1400 700" fill="none" role="img" aria-label="VOP 教师统计">
<defs>
<marker id="arrow" markerWidth="10" markerHeight="10" refX="9" refY="5" orient="auto">
<path d="M 0 0 L 10 5 L 0 10 z" fill="#94A3B8"/>
</marker>
</defs>
<rect x="0" y="0" width="1400" height="700" fill="#F8FAFC"/>
<style>text{font-family:"Noto Sans CJK SC","Source Han Sans SC","Microsoft YaHei","PingFang SC","Hiragino Sans GB","DejaVu Sans","Arial",sans-serif;}</style>
<rect x="20" y="20" width="1360" height="660" rx="18.0" fill="#FFFFFF" stroke="#E2E8F0" stroke-width="1.5"/>
<text x="48" y="62" fill="#0F172A" font-size="28" font-weight="700" text-anchor="start">VOP 学到的到底是什么方向目标</text>
<text x="48" y="90" fill="#475569" font-size="15" font-weight="400" text-anchor="start">教师分布通常带有歧义，而且经常是多区间的，因此用后验分布比单角度分类更合适。</text>
<text x="60" y="150" fill="#0F172A" font-size="22" font-weight="700" text-anchor="start">原始 03/04 协议下的有效角结构</text>
<text x="730" y="150" fill="#0F172A" font-size="22" font-weight="700" text-anchor="start">教师分布统计</text>
<text x="145" y="512" fill="#475569" font-size="14" font-weight="400" text-anchor="middle">1m</text>
<rect x="110" y="380.38793103448273" width="36" height="89.61206896551725" rx="8.0" fill="#7C3AED"/>
<rect x="156" y="382.7586206896552" width="36" height="87.24137931034483" rx="8.0" fill="#B45309"/>
<text x="128" y="395.38793103448273" fill="#7C3AED" font-size="12" font-weight="600" text-anchor="middle">1.63</text>
<text x="174" y="397.7586206896552" fill="#B45309" font-size="12" font-weight="600" text-anchor="middle">19.8%</text>
<text x="315" y="512" fill="#475569" font-size="14" font-weight="400" text-anchor="middle">3m</text>
<rect x="280" y="324.4396551724138" width="36" height="145.56034482758622" rx="8.0" fill="#7C3AED"/>
<rect x="326" y="344.8275862068965" width="36" height="125.17241379310346" rx="8.0" fill="#B45309"/>
<text x="298" y="339.4396551724138" fill="#7C3AED" font-size="12" font-weight="600" text-anchor="middle">2.65</text>
<text x="344" y="359.8275862068965" fill="#B45309" font-size="12" font-weight="600" text-anchor="middle">28.4%</text>
<text x="485" y="512" fill="#475569" font-size="14" font-weight="400" text-anchor="middle">5m</text>
<rect x="450" y="279.3965517241379" width="36" height="190.60344827586206" rx="8.0" fill="#7C3AED"/>
<rect x="496" y="284.1379310344828" width="36" height="185.86206896551724" rx="8.0" fill="#B45309"/>
<text x="468" y="294.3965517241379" fill="#7C3AED" font-size="12" font-weight="600" text-anchor="middle">3.47</text>
<text x="514" y="299.1379310344828" fill="#B45309" font-size="12" font-weight="600" text-anchor="middle">42.2%</text>
<text x="90" y="255" fill="#7C3AED" font-size="13" font-weight="400" text-anchor="start">平均有效角集合大小</text>
<text x="90" y="278" fill="#B45309" font-size="13" font-weight="400" text-anchor="start">多区间比例</text>
<line x1="80" y1="470" x2="580" y2="470" stroke="#94A3B8" stroke-width="1.3"/>
<line x1="80" y1="250" x2="80" y2="470" stroke="#94A3B8" stroke-width="1.3"/>
<text x="60" y="540" fill="#475569" font-size="14" font-weight="400" text-anchor="start">在 5m 容差下，42.2% 的查询已经出现多区间有效角集合。</text>
<rect x="730" y="417.14285714285717" width="70" height="2.857142857142857" rx="8.0" fill="#2563EB"/>
<text x="765" y="440" fill="#475569" font-size="11" font-weight="400" text-anchor="middle">0.00, 0.40</text>
<text x="765" y="407.14285714285717" fill="#2563EB" font-size="12" font-weight="600" text-anchor="middle">3</text>
<rect x="850" y="380.95238095238096" width="70" height="39.04761904761905" rx="8.0" fill="#2563EB"/>
<text x="885" y="440" fill="#475569" font-size="11" font-weight="400" text-anchor="middle">0.40, 0.60</text>
<text x="885" y="370.95238095238096" fill="#2563EB" font-size="12" font-weight="600" text-anchor="middle">41</text>
<rect x="970" y="328.57142857142856" width="70" height="91.42857142857143" rx="8.0" fill="#2563EB"/>
<text x="1005" y="440" fill="#475569" font-size="11" font-weight="400" text-anchor="middle">0.60, 0.70</text>
<text x="1005" y="318.57142857142856" fill="#2563EB" font-size="12" font-weight="600" text-anchor="middle">96</text>
<rect x="1090" y="240.0" width="70" height="180.0" rx="8.0" fill="#2563EB"/>
<text x="1125" y="440" fill="#475569" font-size="11" font-weight="400" text-anchor="middle">0.70, 0.80</text>
<text x="1125" y="230.0" fill="#2563EB" font-size="12" font-weight="600" text-anchor="middle">189</text>
<rect x="1210" y="255.23809523809524" width="70" height="164.76190476190476" rx="8.0" fill="#2563EB"/>
<text x="1245" y="440" fill="#475569" font-size="11" font-weight="400" text-anchor="middle">0.80, 1.00</text>
<text x="1245" y="245.23809523809524" fill="#2563EB" font-size="12" font-weight="600" text-anchor="middle">173</text>
<line x1="720" y1="420" x2="1410" y2="420" stroke="#94A3B8" stroke-width="1.3"/>
<text x="730" y="465" fill="#475569" font-size="14" font-weight="400" text-anchor="start">教师熵分箱（502 个训练对）</text>
<rect x="730" y="490.0" width="80" height="120.0" rx="8.0" fill="#0F766E"/>
<text x="770" y="630" fill="#475569" font-size="12" font-weight="400" text-anchor="middle">&gt;=1m</text>
<text x="770" y="480.0" fill="#0F766E" font-size="12" font-weight="600" text-anchor="middle">360</text>
<rect x="860" y="533.3333333333334" width="80" height="76.66666666666667" rx="8.0" fill="#0F766E"/>
<text x="900" y="630" fill="#475569" font-size="12" font-weight="400" text-anchor="middle">&gt;=3m</text>
<text x="900" y="523.3333333333334" fill="#0F766E" font-size="12" font-weight="600" text-anchor="middle">230</text>
<rect x="990" y="556.3333333333334" width="80" height="53.666666666666664" rx="8.0" fill="#0F766E"/>
<text x="1030" y="630" fill="#475569" font-size="12" font-weight="400" text-anchor="middle">&gt;=5m</text>
<text x="1030" y="546.3333333333334" fill="#0F766E" font-size="12" font-weight="600" text-anchor="middle">161</text>
<rect x="1120" y="585.6666666666666" width="80" height="24.333333333333332" rx="8.0" fill="#0F766E"/>
<text x="1160" y="630" fill="#475569" font-size="12" font-weight="400" text-anchor="middle">&gt;=10m</text>
<text x="1160" y="575.6666666666666" fill="#0F766E" font-size="12" font-weight="600" text-anchor="middle">73</text>
<text x="730" y="662" fill="#475569" font-size="14" font-weight="400" text-anchor="start">在 502 个训练对中，有 161 个样本的角度差距达到 &gt;=5m，说明监督并不简单。</text>
</svg>