<svg xmlns="http://www.w3.org/2000/svg" width="1360" height="620" viewBox="0 0 1360 620" fill="none" role="img" aria-label="VOP 的 k 值曲线">
<defs>
<marker id="arrow" markerWidth="10" markerHeight="10" refX="9" refY="5" orient="auto">
<path d="M 0 0 L 10 5 L 0 10 z" fill="#94A3B8"/>
</marker>
</defs>
<rect x="0" y="0" width="1360" height="620" fill="#F8FAFC"/>
<style>text{font-family:"Noto Sans CJK SC","Source Han Sans SC","Microsoft YaHei","PingFang SC","Hiragino Sans GB","DejaVu Sans","Arial",sans-serif;}</style>
<rect x="20" y="20" width="1320" height="580" rx="18.0" fill="#FFFFFF" stroke="#E2E8F0" stroke-width="1.5"/>
<text x="48" y="62" fill="#0F172A" font-size="28" font-weight="700" text-anchor="start">原始 03/04 协议：VOP 的 prior-topk 折中</text>
<text x="48" y="90" fill="#475569" font-size="15" font-weight="400" text-anchor="start">随着 k 增大，VOP 持续降低 Dis@1，但耗时也随之上升。这是最主要的实用折中。</text>
<line x1="140" y1="180" x2="1220" y2="180" stroke="#E2E8F0" stroke-width="1.0" stroke-dasharray="4 6"/>
<line x1="140" y1="320" x2="1220" y2="320" stroke="#E2E8F0" stroke-width="1.0" stroke-dasharray="4 6"/>
<line x1="140" y1="460" x2="1220" y2="460" stroke="#E2E8F0" stroke-width="1.0" stroke-dasharray="4 6"/>
<line x1="140.0" y1="150" x2="140.0" y2="520" stroke="#E2E8F0" stroke-width="1.0" stroke-dasharray="4 6"/>
<text x="140.0" y="548" fill="#475569" font-size="13" font-weight="400" text-anchor="middle">k=1</text>
<line x1="410.0" y1="150" x2="410.0" y2="520" stroke="#E2E8F0" stroke-width="1.0" stroke-dasharray="4 6"/>
<text x="410.0" y="548" fill="#475569" font-size="13" font-weight="400" text-anchor="middle">k=2</text>
<line x1="680.0" y1="150" x2="680.0" y2="520" stroke="#E2E8F0" stroke-width="1.0" stroke-dasharray="4 6"/>
<text x="680.0" y="548" fill="#475569" font-size="13" font-weight="400" text-anchor="middle">k=3</text>
<line x1="950.0" y1="150" x2="950.0" y2="520" stroke="#E2E8F0" stroke-width="1.0" stroke-dasharray="4 6"/>
<text x="950.0" y="548" fill="#475569" font-size="13" font-weight="400" text-anchor="middle">k=4</text>
<line x1="1220.0" y1="150" x2="1220.0" y2="520" stroke="#E2E8F0" stroke-width="1.0" stroke-dasharray="4 6"/>
<text x="1220.0" y="548" fill="#475569" font-size="13" font-weight="400" text-anchor="middle">k=5</text>
<line x1="140" y1="520" x2="1220" y2="520" stroke="#94A3B8" stroke-width="1.4"/>
<text x="70" y="155" fill="#7C3AED" font-size="14" font-weight="400" text-anchor="start">Dis@1（米）</text>
<text x="70" y="180" fill="#475569" font-size="12" font-weight="400" text-anchor="start">70</text>
<text x="70" y="320" fill="#475569" font-size="12" font-weight="400" text-anchor="start">55</text>
<text x="70" y="460" fill="#475569" font-size="12" font-weight="400" text-anchor="start">40</text>
<polyline points="140.0,206.50705958070722 410.0,328.0067956769544 680.0,379.27459424335393 950.0,387.9953187934002 1220.0,403.51249170972005" fill="none" stroke="#7C3AED" stroke-width="3"/>
<polyline points="140.0,449.092428212311 410.0,377.53762897409115 680.0,309.26924705585657 950.0,242.6191481837104 1220.0,174.41578935944187" fill="none" stroke="#B45309" stroke-width="3"/>
<polyline points="140.0,413.7931034482759 410.0,303.44827586206895 680.0,270.34482758620686 950.0,237.24137931034483 1220.0,215.17241379310343" fill="none" stroke="#0F766E" stroke-width="3"/>
<circle cx="140.0" cy="206.50705958070722" r="6" fill="#7C3AED"/>
<text x="140.0" y="194.50705958070722" fill="#7C3AED" font-size="12" font-weight="600" text-anchor="middle">65.6</text>
<circle cx="410.0" cy="328.0067956769544" r="6" fill="#7C3AED"/>
<text x="410.0" y="316.0067956769544" fill="#7C3AED" font-size="12" font-weight="600" text-anchor="middle">54.2</text>
<circle cx="680.0" cy="379.27459424335393" r="6" fill="#7C3AED"/>
<text x="680.0" y="367.27459424335393" fill="#7C3AED" font-size="12" font-weight="600" text-anchor="middle">49.4</text>
<circle cx="950.0" cy="387.9953187934002" r="6" fill="#7C3AED"/>
<text x="950.0" y="375.9953187934002" fill="#7C3AED" font-size="12" font-weight="600" text-anchor="middle">48.6</text>
<circle cx="1220.0" cy="403.51249170972005" r="6" fill="#7C3AED"/>
<text x="1220.0" y="391.51249170972005" fill="#7C3AED" font-size="12" font-weight="600" text-anchor="middle">47.2</text>
<circle cx="140.0" cy="449.092428212311" r="6" fill="#B45309"/>
<text x="140.0" y="471.092428212311" fill="#B45309" font-size="12" font-weight="600" text-anchor="middle">0.139s</text>
<circle cx="410.0" cy="377.53762897409115" r="6" fill="#B45309"/>
<text x="410.0" y="399.53762897409115" fill="#B45309" font-size="12" font-weight="600" text-anchor="middle">0.228s</text>
<circle cx="680.0" cy="309.26924705585657" r="6" fill="#B45309"/>
<text x="680.0" y="331.26924705585657" fill="#B45309" font-size="12" font-weight="600" text-anchor="middle">0.313s</text>
<circle cx="950.0" cy="242.6191481837104" r="6" fill="#B45309"/>
<text x="950.0" y="264.6191481837104" fill="#B45309" font-size="12" font-weight="600" text-anchor="middle">0.397s</text>
<circle cx="1220.0" cy="174.41578935944187" r="6" fill="#B45309"/>
<text x="1220.0" y="196.41578935944187" fill="#B45309" font-size="12" font-weight="600" text-anchor="middle">0.482s</text>
<circle cx="140.0" cy="413.7931034482759" r="6" fill="#0F766E"/>
<text x="152.0" y="407.7931034482759" fill="#0F766E" font-size="12" font-weight="600" text-anchor="start">5.2%</text>
<circle cx="410.0" cy="303.44827586206895" r="6" fill="#0F766E"/>
<text x="422.0" y="297.44827586206895" fill="#0F766E" font-size="12" font-weight="600" text-anchor="start">13.8%</text>
<circle cx="680.0" cy="270.34482758620686" r="6" fill="#0F766E"/>
<text x="692.0" y="264.34482758620686" fill="#0F766E" font-size="12" font-weight="600" text-anchor="start">16.4%</text>
<circle cx="950.0" cy="237.24137931034483" r="6" fill="#0F766E"/>
<text x="962.0" y="231.24137931034483" fill="#0F766E" font-size="12" font-weight="600" text-anchor="start">19.0%</text>
<circle cx="1220.0" cy="215.17241379310343" r="6" fill="#0F766E"/>
<text x="1232.0" y="209.17241379310343" fill="#0F766E" font-size="12" font-weight="600" text-anchor="start">20.7%</text>
<rect x="880" y="84" width="18" height="18" rx="4" fill="#7C3AED"/>
<text x="908" y="98" fill="#475569" font-size="13" font-weight="400" text-anchor="start">Dis@1</text>
<rect x="880" y="108" width="18" height="18" rx="4" fill="#B45309"/>
<text x="908" y="122" fill="#475569" font-size="13" font-weight="400" text-anchor="start">单次耗时</text>
<rect x="880" y="132" width="18" height="18" rx="4" fill="#0F766E"/>
<text x="908" y="146" fill="#475569" font-size="13" font-weight="400" text-anchor="start">最优角覆盖率</text>
<text x="48" y="590" fill="#475569" font-size="14" font-weight="400" text-anchor="start">原始小范围结果表明：k=4/k=5 精度最好，但 k=3 已经是不错的速度-精度折中。</text>
</svg>