<svg xmlns="http://www.w3.org/2000/svg" width="1360" height="620" viewBox="0 0 1360 620" fill="none" role="img" aria-label="场景 03 和 04">
<defs>
<marker id="arrow" markerWidth="10" markerHeight="10" refX="9" refY="5" orient="auto">
<path d="M 0 0 L 10 5 L 0 10 z" fill="#94A3B8"/>
</marker>
</defs>
<rect x="0" y="0" width="1360" height="620" fill="#F8FAFC"/>
<style>text{font-family:"Noto Sans CJK SC","Source Han Sans SC","Microsoft YaHei","PingFang SC","Hiragino Sans GB","DejaVu Sans","Arial",sans-serif;}</style>
<rect x="20" y="20" width="1320" height="580" rx="18.0" fill="#FFFFFF" stroke="#E2E8F0" stroke-width="1.5"/>
<text x="48" y="62" fill="#0F172A" font-size="28" font-weight="700" text-anchor="start">原始小范围设定：场景 03 与场景 04</text>
<text x="48" y="90" fill="#475569" font-size="15" font-weight="400" text-anchor="start">场景 03 有 71 个查询，场景 04 有 45 个查询。</text>
<rect x="70" y="170" width="560" height="360" rx="18" fill="#FFFFFF" stroke="#E2E8F0" stroke-width="1.2"/>
<text x="94" y="204" fill="#0F172A" font-size="22" font-weight="700" text-anchor="start">场景 03</text>
<line x1="210" y1="470" x2="570" y2="470" stroke="#94A3B8" stroke-width="1.4"/>
<line x1="210.0" y1="464" x2="210.0" y2="476" stroke="#94A3B8" stroke-width="1.0"/>
<line x1="210.0" y1="250" x2="210.0" y2="470" stroke="#E2E8F0" stroke-width="1.0" stroke-dasharray="4 6"/>
<text x="210.0" y="494" fill="#475569" font-size="12" font-weight="400" text-anchor="middle">0</text>
<line x1="300.0" y1="464" x2="300.0" y2="476" stroke="#94A3B8" stroke-width="1.0"/>
<line x1="300.0" y1="250" x2="300.0" y2="470" stroke="#E2E8F0" stroke-width="1.0" stroke-dasharray="4 6"/>
<text x="300.0" y="494" fill="#475569" font-size="12" font-weight="400" text-anchor="middle">20</text>
<line x1="390.0" y1="464" x2="390.0" y2="476" stroke="#94A3B8" stroke-width="1.0"/>
<line x1="390.0" y1="250" x2="390.0" y2="470" stroke="#E2E8F0" stroke-width="1.0" stroke-dasharray="4 6"/>
<text x="390.0" y="494" fill="#475569" font-size="12" font-weight="400" text-anchor="middle">40</text>
<line x1="480.0" y1="464" x2="480.0" y2="476" stroke="#94A3B8" stroke-width="1.0"/>
<line x1="480.0" y1="250" x2="480.0" y2="470" stroke="#E2E8F0" stroke-width="1.0" stroke-dasharray="4 6"/>
<text x="480.0" y="494" fill="#475569" font-size="12" font-weight="400" text-anchor="middle">60</text>
<line x1="570.0" y1="464" x2="570.0" y2="476" stroke="#94A3B8" stroke-width="1.0"/>
<line x1="570.0" y1="250" x2="570.0" y2="470" stroke="#E2E8F0" stroke-width="1.0" stroke-dasharray="4 6"/>
<text x="570.0" y="494" fill="#475569" font-size="12" font-weight="400" text-anchor="middle">80</text>
<text x="570" y="520" fill="#475569" font-size="13" font-weight="400" text-anchor="end">Dis@1（米）</text>
<text x="192" y="255" fill="#475569" font-size="14" font-weight="400" text-anchor="end">k=1</text>
<rect x="210" y="240" width="281.4341740261601" height="22" rx="8.0" fill="#475569"/>
<text x="501.4341740261601" y="256" fill="#475569" font-size="13" font-weight="600" text-anchor="start">62.5</text>
<text x="192" y="303" fill="#475569" font-size="14" font-weight="400" text-anchor="end">k=3</text>
<rect x="210" y="288" width="188.50813870994608" height="22" rx="8.0" fill="#B45309"/>
<text x="408.5081387099461" y="304" fill="#B45309" font-size="13" font-weight="600" text-anchor="start">41.9</text>
<text x="192" y="351" fill="#475569" font-size="14" font-weight="400" text-anchor="end">k=4</text>
<rect x="210" y="336" width="179.08489740763451" height="22" rx="8.0" fill="#7C3AED"/>
<text x="399.0848974076345" y="352" fill="#7C3AED" font-size="13" font-weight="600" text-anchor="start">39.8</text>
<text x="192" y="399" fill="#475569" font-size="14" font-weight="400" text-anchor="end">k=5</text>
<rect x="210" y="384" width="171.69103503127707" height="22" rx="8.0" fill="#9333EA"/>
<text x="391.69103503127707" y="400" fill="#9333EA" font-size="13" font-weight="600" text-anchor="start">38.2</text>
<text x="192" y="447" fill="#475569" font-size="14" font-weight="400" text-anchor="end">理想上界 k=3</text>
<rect x="210" y="432" width="161.4490053796836" height="22" rx="8.0" fill="#16A34A"/>
<text x="381.4490053796836" y="448" fill="#16A34A" font-size="13" font-weight="600" text-anchor="start">35.9</text>
<rect x="720" y="170" width="560" height="360" rx="18" fill="#FFFFFF" stroke="#E2E8F0" stroke-width="1.2"/>
<text x="744" y="204" fill="#0F172A" font-size="22" font-weight="700" text-anchor="start">场景 04</text>
<line x1="860" y1="470" x2="1220" y2="470" stroke="#94A3B8" stroke-width="1.4"/>
<line x1="860.0" y1="464" x2="860.0" y2="476" stroke="#94A3B8" stroke-width="1.0"/>
<line x1="860.0" y1="250" x2="860.0" y2="470" stroke="#E2E8F0" stroke-width="1.0" stroke-dasharray="4 6"/>
<text x="860.0" y="494" fill="#475569" font-size="12" font-weight="400" text-anchor="middle">0</text>
<line x1="950.0" y1="464" x2="950.0" y2="476" stroke="#94A3B8" stroke-width="1.0"/>
<line x1="950.0" y1="250" x2="950.0" y2="470" stroke="#E2E8F0" stroke-width="1.0" stroke-dasharray="4 6"/>
<text x="950.0" y="494" fill="#475569" font-size="12" font-weight="400" text-anchor="middle">20</text>
<line x1="1040.0" y1="464" x2="1040.0" y2="476" stroke="#94A3B8" stroke-width="1.0"/>
<line x1="1040.0" y1="250" x2="1040.0" y2="470" stroke="#E2E8F0" stroke-width="1.0" stroke-dasharray="4 6"/>
<text x="1040.0" y="494" fill="#475569" font-size="12" font-weight="400" text-anchor="middle">40</text>
<line x1="1130.0" y1="464" x2="1130.0" y2="476" stroke="#94A3B8" stroke-width="1.0"/>
<line x1="1130.0" y1="250" x2="1130.0" y2="470" stroke="#E2E8F0" stroke-width="1.0" stroke-dasharray="4 6"/>
<text x="1130.0" y="494" fill="#475569" font-size="12" font-weight="400" text-anchor="middle">60</text>
<line x1="1220.0" y1="464" x2="1220.0" y2="476" stroke="#94A3B8" stroke-width="1.0"/>
<line x1="1220.0" y1="250" x2="1220.0" y2="470" stroke="#E2E8F0" stroke-width="1.0" stroke-dasharray="4 6"/>
<text x="1220.0" y="494" fill="#475569" font-size="12" font-weight="400" text-anchor="middle">80</text>
<text x="1220" y="520" fill="#475569" font-size="13" font-weight="400" text-anchor="end">Dis@1（米）</text>
<text x="842" y="255" fill="#475569" font-size="14" font-weight="400" text-anchor="end">k=1</text>
<rect x="860" y="240" width="317.38298702026157" height="22" rx="8.0" fill="#475569"/>
<text x="1187.3829870202617" y="256" fill="#475569" font-size="13" font-weight="600" text-anchor="start">70.5</text>
<text x="842" y="303" fill="#475569" font-size="14" font-weight="400" text-anchor="end">k=3</text>
<rect x="860" y="288" width="276.11492657354887" height="22" rx="8.0" fill="#B45309"/>
<text x="1146.114926573549" y="304" fill="#B45309" font-size="13" font-weight="600" text-anchor="start">61.4</text>
<text x="842" y="351" fill="#475569" font-size="14" font-weight="400" text-anchor="end">k=4</text>
<rect x="860" y="336" width="281.49891934679835" height="22" rx="8.0" fill="#7C3AED"/>
<text x="1151.4989193467984" y="352" fill="#7C3AED" font-size="13" font-weight="600" text-anchor="start">62.6</text>
<text x="842" y="399" fill="#475569" font-size="14" font-weight="400" text-anchor="end">k=5</text>
<rect x="860" y="384" width="276.28986554966457" height="22" rx="8.0" fill="#9333EA"/>
<text x="1146.2898655496647" y="400" fill="#9333EA" font-size="13" font-weight="600" text-anchor="start">61.4</text>
<text x="842" y="447" fill="#475569" font-size="14" font-weight="400" text-anchor="end">理想上界 k=3</text>
<rect x="860" y="432" width="251.4613351488512" height="22" rx="8.0" fill="#16A34A"/>
<text x="1121.4613351488513" y="448" fill="#16A34A" font-size="13" font-weight="600" text-anchor="start">55.9</text>
<text x="48" y="590" fill="#475569" font-size="14" font-weight="400" text-anchor="start">结论：VOP 在场景 03 上尤其有效；场景 04 也有改善，但残余歧义更大。</text>
</svg>