<svg xmlns="http://www.w3.org/2000/svg" width="1280" height="540" viewBox="0 0 1280 540" fill="none" role="img" aria-label="监督版本对比">
<defs>
<marker id="arrow" markerWidth="10" markerHeight="10" refX="9" refY="5" orient="auto">
<path d="M 0 0 L 10 5 L 0 10 z" fill="#94A3B8"/>
</marker>
</defs>
<rect x="0" y="0" width="1280" height="540" fill="#F8FAFC"/>
<style>text{font-family:"Noto Sans CJK SC","Source Han Sans SC","Microsoft YaHei","PingFang SC","Hiragino Sans GB","DejaVu Sans","Arial",sans-serif;}</style>
<rect x="24" y="24" width="1232" height="492" rx="18.0" fill="#FFFFFF" stroke="#E2E8F0" stroke-width="1.5"/>
<text x="52" y="68" fill="#0F172A" font-size="28" font-weight="700" text-anchor="start">改成有效角监督后发生了什么</text>
<text x="52" y="96" fill="#475569" font-size="15" font-weight="400" text-anchor="start">原始小范围设定下：当前 VOP 与有效角 5m top-3 版 VOP 的对比。</text>
<rect x="52" y="112" width="18" height="18" rx="4" fill="#2563EB"/>
<text x="78" y="127" fill="#475569" font-size="14" font-weight="400" text-anchor="start">当前 rank-CE 版 VOP</text>
<rect x="290" y="112" width="18" height="18" rx="4" fill="#7C3AED"/>
<text x="316" y="127" fill="#475569" font-size="14" font-weight="400" text-anchor="start">有效角 5m top-3 版 VOP</text>
<text x="250" y="188" fill="#0F172A" font-size="18" font-weight="600" text-anchor="end">top-1 命中率</text>
<line x1="280" y1="228" x2="1140" y2="228" stroke="#94A3B8" stroke-width="1.4"/>
<line x1="280.0" y1="222" x2="280.0" y2="234" stroke="#94A3B8" stroke-width="1.0"/>
<line x1="280.0" y1="8" x2="280.0" y2="228" stroke="#E2E8F0" stroke-width="1.0" stroke-dasharray="4 6"/>
<text x="280.0" y="252" fill="#475569" font-size="12" font-weight="400" text-anchor="middle">0</text>
<line x1="566.6666666666667" y1="222" x2="566.6666666666667" y2="234" stroke="#94A3B8" stroke-width="1.0"/>
<line x1="566.6666666666667" y1="8" x2="566.6666666666667" y2="228" stroke="#E2E8F0" stroke-width="1.0" stroke-dasharray="4 6"/>
<text x="566.6666666666667" y="252" fill="#475569" font-size="12" font-weight="400" text-anchor="middle">4</text>
<line x1="853.3333333333334" y1="222" x2="853.3333333333334" y2="234" stroke="#94A3B8" stroke-width="1.0"/>
<line x1="853.3333333333334" y1="8" x2="853.3333333333334" y2="228" stroke="#E2E8F0" stroke-width="1.0" stroke-dasharray="4 6"/>
<text x="853.3333333333334" y="252" fill="#475569" font-size="12" font-weight="400" text-anchor="middle">8</text>
<line x1="1140.0" y1="222" x2="1140.0" y2="234" stroke="#94A3B8" stroke-width="1.0"/>
<line x1="1140.0" y1="8" x2="1140.0" y2="228" stroke="#E2E8F0" stroke-width="1.0" stroke-dasharray="4 6"/>
<text x="1140.0" y="252" fill="#475569" font-size="12" font-weight="400" text-anchor="middle">12</text>
<text x="1140" y="278" fill="#475569" font-size="13" font-weight="400" text-anchor="end"></text>
<rect x="280" y="170" width="247.1264367816092" height="24" rx="8.0" fill="#2563EB"/>
<rect x="280" y="200" width="556.0344827586207" height="24" rx="8.0" fill="#7C3AED"/>
<text x="537.1264367816092" y="188" fill="#2563EB" font-size="14" font-weight="600" text-anchor="start">3.4%</text>
<text x="846.0344827586207" y="218" fill="#7C3AED" font-size="14" font-weight="600" text-anchor="start">7.8%</text>
<text x="250" y="288" fill="#0F172A" font-size="18" font-weight="600" text-anchor="end">top-3 覆盖率</text>
<line x1="280" y1="328" x2="1140" y2="328" stroke="#94A3B8" stroke-width="1.4"/>
<line x1="280.0" y1="322" x2="280.0" y2="334" stroke="#94A3B8" stroke-width="1.0"/>
<line x1="280.0" y1="108" x2="280.0" y2="328" stroke="#E2E8F0" stroke-width="1.0" stroke-dasharray="4 6"/>
<text x="280.0" y="352" fill="#475569" font-size="12" font-weight="400" text-anchor="middle">0</text>
<line x1="566.6666666666667" y1="322" x2="566.6666666666667" y2="334" stroke="#94A3B8" stroke-width="1.0"/>
<line x1="566.6666666666667" y1="108" x2="566.6666666666667" y2="328" stroke="#E2E8F0" stroke-width="1.0" stroke-dasharray="4 6"/>
<text x="566.6666666666667" y="352" fill="#475569" font-size="12" font-weight="400" text-anchor="middle">10</text>
<line x1="853.3333333333334" y1="322" x2="853.3333333333334" y2="334" stroke="#94A3B8" stroke-width="1.0"/>
<line x1="853.3333333333334" y1="108" x2="853.3333333333334" y2="328" stroke="#E2E8F0" stroke-width="1.0" stroke-dasharray="4 6"/>
<text x="853.3333333333334" y="352" fill="#475569" font-size="12" font-weight="400" text-anchor="middle">20</text>
<line x1="1140.0" y1="322" x2="1140.0" y2="334" stroke="#94A3B8" stroke-width="1.0"/>
<line x1="1140.0" y1="108" x2="1140.0" y2="328" stroke="#E2E8F0" stroke-width="1.0" stroke-dasharray="4 6"/>
<text x="1140.0" y="352" fill="#475569" font-size="12" font-weight="400" text-anchor="middle">30</text>
<text x="1140" y="378" fill="#475569" font-size="13" font-weight="400" text-anchor="end"></text>
<rect x="280" y="270" width="518.9655172413793" height="24" rx="8.0" fill="#2563EB"/>
<rect x="280" y="300" width="518.9655172413793" height="24" rx="8.0" fill="#7C3AED"/>
<text x="808.9655172413793" y="288" fill="#2563EB" font-size="14" font-weight="600" text-anchor="start">18.1%</text>
<text x="808.9655172413793" y="318" fill="#7C3AED" font-size="14" font-weight="600" text-anchor="start">18.1%</text>
<text x="250" y="388" fill="#0F172A" font-size="18" font-weight="600" text-anchor="end">平均最终误差</text>
<line x1="280" y1="428" x2="1140" y2="428" stroke="#94A3B8" stroke-width="1.4"/>
<line x1="280.0" y1="422" x2="280.0" y2="434" stroke="#94A3B8" stroke-width="1.0"/>
<line x1="280.0" y1="208" x2="280.0" y2="428" stroke="#E2E8F0" stroke-width="1.0" stroke-dasharray="4 6"/>
<text x="280.0" y="452" fill="#475569" font-size="12" font-weight="400" text-anchor="middle">0</text>
<line x1="566.6666666666666" y1="422" x2="566.6666666666666" y2="434" stroke="#94A3B8" stroke-width="1.0"/>
<line x1="566.6666666666666" y1="208" x2="566.6666666666666" y2="428" stroke="#E2E8F0" stroke-width="1.0" stroke-dasharray="4 6"/>
<text x="566.6666666666666" y="452" fill="#475569" font-size="12" font-weight="400" text-anchor="middle">23.3333</text>
<line x1="853.3333333333333" y1="422" x2="853.3333333333333" y2="434" stroke="#94A3B8" stroke-width="1.0"/>
<line x1="853.3333333333333" y1="208" x2="853.3333333333333" y2="428" stroke="#E2E8F0" stroke-width="1.0" stroke-dasharray="4 6"/>
<text x="853.3333333333333" y="452" fill="#475569" font-size="12" font-weight="400" text-anchor="middle">46.6667</text>
<line x1="1140.0" y1="422" x2="1140.0" y2="434" stroke="#94A3B8" stroke-width="1.0"/>
<line x1="1140.0" y1="208" x2="1140.0" y2="428" stroke="#E2E8F0" stroke-width="1.0" stroke-dasharray="4 6"/>
<text x="1140.0" y="452" fill="#475569" font-size="12" font-weight="400" text-anchor="middle">70</text>
<text x="1140" y="478" fill="#475569" font-size="13" font-weight="400" text-anchor="end"></text>
<rect x="280" y="370" width="706.6307350722922" height="24" rx="8.0" fill="#2563EB"/>
<rect x="280" y="400" width="642.7218011642466" height="24" rx="8.0" fill="#7C3AED"/>
<text x="996.6307350722922" y="388" fill="#2563EB" font-size="14" font-weight="600" text-anchor="start">57.5m</text>
<text x="932.7218011642466" y="418" fill="#7C3AED" font-size="14" font-weight="600" text-anchor="start">52.3m</text>
<text x="52" y="506" fill="#475569" font-size="14" font-weight="400" text-anchor="start">这说明我们不只是加了一个模块，也在改进 VOP 背后的监督设计。</text>
</svg>