<svg xmlns="http://www.w3.org/2000/svg" width="1420" height="700" viewBox="0 0 1420 700" fill="none" role="img" aria-label="与原论文主表的对比">
<defs>
<marker id="arrow" markerWidth="10" markerHeight="10" refX="9" refY="5" orient="auto">
<path d="M 0 0 L 10 5 L 0 10 z" fill="#94A3B8"/>
</marker>
</defs>
<rect x="0" y="0" width="1420" height="700" fill="#F8FAFC"/>
<style>text{font-family:"Noto Sans CJK SC","Source Han Sans SC","Microsoft YaHei","PingFang SC","Hiragino Sans GB","DejaVu Sans","Arial",sans-serif;}</style>
<rect x="20" y="20" width="1380" height="660" rx="18.0" fill="#FFFFFF" stroke="#E2E8F0" stroke-width="1.5"/>
<text x="48" y="62" fill="#0F172A" font-size="28" font-weight="700" text-anchor="start">与原论文主表的对应关系</text>
<text x="48" y="90" fill="#475569" font-size="15" font-weight="400" text-anchor="start">原论文 Table 4 是检索主表。当前最可比的是本地 same-area-paper7 的 retrieval-only 复现，而不是 03/04 子集上的 VOP 细定位结果。</text>
<rect x="50" y="128" width="1320" height="140" rx="18" fill="#FFFFFF" stroke="#E2E8F0" stroke-width="1.2"/>
<text x="78" y="172" fill="#475569" font-size="17" font-weight="400" text-anchor="start">原论文 Table 4 指标：R@1、R@5、AP、SDM@3、Dis@1；本质上是检索主表，不是细定位主表。</text>
<text x="78" y="200" fill="#475569" font-size="17" font-weight="400" text-anchor="start">本地 paper7 协议当前严格位置测试查询数为 383；实际有效测试场景主要是 01/02/03/04/08。</text>
<text x="78" y="228" fill="#475569" font-size="17" font-weight="400" text-anchor="start">因此当前 03/04 上的 VOP 结果可以说明方法有效，但不能直接写成“超过原论文主表”。</text>
<text x="70" y="308" fill="#0F172A" font-size="24" font-weight="700" text-anchor="start">可直接比较的检索指标</text>
<rect x="400" y="288" width="18" height="18" rx="4" fill="#2563EB"/>
<text x="426" y="303" fill="#475569" font-size="14" font-weight="400" text-anchor="start">原论文 Table 4</text>
<rect x="570" y="288" width="18" height="18" rx="4" fill="#7C3AED"/>
<text x="596" y="303" fill="#475569" font-size="14" font-weight="400" text-anchor="start">当前本地 paper7 复现</text>
<line x1="240" y1="640" x2="710" y2="640" stroke="#94A3B8" stroke-width="1.4"/>
<line x1="240.0" y1="634" x2="240.0" y2="646" stroke="#94A3B8" stroke-width="1.0"/>
<line x1="240.0" y1="420" x2="240.0" y2="640" stroke="#E2E8F0" stroke-width="1.0" stroke-dasharray="4 6"/>
<text x="240.0" y="664" fill="#475569" font-size="12" font-weight="400" text-anchor="middle">0</text>
<line x1="357.5" y1="634" x2="357.5" y2="646" stroke="#94A3B8" stroke-width="1.0"/>
<line x1="357.5" y1="420" x2="357.5" y2="640" stroke="#E2E8F0" stroke-width="1.0" stroke-dasharray="4 6"/>
<text x="357.5" y="664" fill="#475569" font-size="12" font-weight="400" text-anchor="middle">25</text>
<line x1="475.0" y1="634" x2="475.0" y2="646" stroke="#94A3B8" stroke-width="1.0"/>
<line x1="475.0" y1="420" x2="475.0" y2="640" stroke="#E2E8F0" stroke-width="1.0" stroke-dasharray="4 6"/>
<text x="475.0" y="664" fill="#475569" font-size="12" font-weight="400" text-anchor="middle">50</text>
<line x1="592.5" y1="634" x2="592.5" y2="646" stroke="#94A3B8" stroke-width="1.0"/>
<line x1="592.5" y1="420" x2="592.5" y2="640" stroke="#E2E8F0" stroke-width="1.0" stroke-dasharray="4 6"/>
<text x="592.5" y="664" fill="#475569" font-size="12" font-weight="400" text-anchor="middle">75</text>
<line x1="710.0" y1="634" x2="710.0" y2="646" stroke="#94A3B8" stroke-width="1.0"/>
<line x1="710.0" y1="420" x2="710.0" y2="640" stroke="#E2E8F0" stroke-width="1.0" stroke-dasharray="4 6"/>
<text x="710.0" y="664" fill="#475569" font-size="12" font-weight="400" text-anchor="middle">100</text>
<text x="710" y="690" fill="#475569" font-size="13" font-weight="400" text-anchor="end">百分比（越高越好）</text>
<text x="200" y="348" fill="#0F172A" font-size="18" font-weight="600" text-anchor="end">R@1</text>
<rect x="240" y="330" width="376.94" height="20" rx="8.0" fill="#2563EB"/>
<rect x="240" y="358" width="283.47251" height="20" rx="8.0" fill="#7C3AED"/>
<text x="624.94" y="346" fill="#2563EB" font-size="13" font-weight="600" text-anchor="start">80.20</text>
<text x="531.47251" y="374" fill="#7C3AED" font-size="13" font-weight="600" text-anchor="start">60.31</text>
<text x="200" y="426" fill="#0F172A" font-size="18" font-weight="600" text-anchor="end">R@5</text>
<rect x="240" y="408" width="453.691" height="20" rx="8.0" fill="#2563EB"/>
<rect x="240" y="436" width="408.64243999999997" height="20" rx="8.0" fill="#7C3AED"/>
<text x="701.691" y="424" fill="#2563EB" font-size="13" font-weight="600" text-anchor="start">96.53</text>
<text x="656.64244" y="452" fill="#7C3AED" font-size="13" font-weight="600" text-anchor="start">86.95</text>
<text x="200" y="504" fill="#0F172A" font-size="18" font-weight="600" text-anchor="end">AP</text>
<rect x="240" y="486" width="412.801" height="20" rx="8.0" fill="#2563EB"/>
<rect x="240" y="514" width="338.14902" height="20" rx="8.0" fill="#7C3AED"/>
<text x="660.8009999999999" y="502" fill="#2563EB" font-size="13" font-weight="600" text-anchor="start">87.83</text>
<text x="586.1490200000001" y="530" fill="#7C3AED" font-size="13" font-weight="600" text-anchor="start">71.95</text>
<text x="200" y="582" fill="#0F172A" font-size="18" font-weight="600" text-anchor="end">SDM@3</text>
<rect x="240" y="564" width="401.662" height="20" rx="8.0" fill="#2563EB"/>
<rect x="240" y="592" width="360.161" height="20" rx="8.0" fill="#7C3AED"/>
<text x="649.662" y="580" fill="#2563EB" font-size="13" font-weight="600" text-anchor="start">85.46</text>
<text x="608.1610000000001" y="608" fill="#7C3AED" font-size="13" font-weight="600" text-anchor="start">76.63</text>
<text x="760" y="308" fill="#0F172A" font-size="24" font-weight="700" text-anchor="start">Dis@1 对比与解读</text>
<line x1="880" y1="520" x2="1400" y2="520" stroke="#94A3B8" stroke-width="1.4"/>
<line x1="880.0" y1="514" x2="880.0" y2="526" stroke="#94A3B8" stroke-width="1.0"/>
<line x1="880.0" y1="300" x2="880.0" y2="520" stroke="#E2E8F0" stroke-width="1.0" stroke-dasharray="4 6"/>
<text x="880.0" y="544" fill="#475569" font-size="12" font-weight="400" text-anchor="middle">0</text>
<line x1="1043.7978935590888" y1="514" x2="1043.7978935590888" y2="526" stroke="#94A3B8" stroke-width="1.0"/>
<line x1="1043.7978935590888" y1="300" x2="1043.7978935590888" y2="520" stroke="#E2E8F0" stroke-width="1.0" stroke-dasharray="4 6"/>
<text x="1043.7978935590888" y="544" fill="#475569" font-size="12" font-weight="400" text-anchor="middle">100</text>
<line x1="1207.5957871181777" y1="514" x2="1207.5957871181777" y2="526" stroke="#94A3B8" stroke-width="1.0"/>
<line x1="1207.5957871181777" y1="300" x2="1207.5957871181777" y2="520" stroke="#E2E8F0" stroke-width="1.0" stroke-dasharray="4 6"/>
<text x="1207.5957871181777" y="544" fill="#475569" font-size="12" font-weight="400" text-anchor="middle">200</text>
<line x1="1371.3936806772665" y1="514" x2="1371.3936806772665" y2="526" stroke="#94A3B8" stroke-width="1.0"/>
<line x1="1371.3936806772665" y1="300" x2="1371.3936806772665" y2="520" stroke="#E2E8F0" stroke-width="1.0" stroke-dasharray="4 6"/>
<text x="1371.3936806772665" y="544" fill="#475569" font-size="12" font-weight="400" text-anchor="middle">300</text>
<text x="1400" y="570" fill="#475569" font-size="13" font-weight="400" text-anchor="end">米（越低越好）</text>
<text x="860" y="392" fill="#0F172A" font-size="18" font-weight="600" text-anchor="end">原论文</text>
<rect x="880" y="372" width="201.25847181605243" height="24" rx="8.0" fill="#2563EB"/>
<text x="1089.2584718160524" y="390" fill="#2563EB" font-size="14" font-weight="600" text-anchor="start">122.87m</text>
<text x="860" y="442" fill="#0F172A" font-size="18" font-weight="600" text-anchor="end">当前复现</text>
<rect x="880" y="422" width="472.7272727272727" height="24" rx="8.0" fill="#7C3AED"/>
<text x="1360.7272727272727" y="440" fill="#7C3AED" font-size="14" font-weight="600" text-anchor="start">288.60m</text>
<text x="760" y="576" fill="#475569" font-size="16" font-weight="400" text-anchor="start">当前本地复现（最新已完成评估）相对原论文：R@1 -19.89，AP -15.88，Dis@1 +165.73m。</text>
<text x="760" y="606" fill="#475569" font-size="16" font-weight="400" text-anchor="start">结论：paper7 retrieval 复现还没有对齐原论文主表，所以 VOP 当前更适合先作为方法证据，而不是直接拿去对主表宣称提升。</text>
</svg>